<svg width="294" height="48" viewBox="0 0 294 48" fill="none" xmlns="http://www.w3.org/2000/svg">
<path d="M0 26.4908V35.7967C13.2411 25.8582 29.2307 39.2869 42.607 30.7009V22.0015C29.2917 31.7916 13.4592 18.1274 0 26.4908Z" fill="#155CDD"></path>
<path d="M23.0573 41.1847C20.9074 41.5517 18.6965 41.1839 16.7811 40.1408C14.8657 39.0976 13.3574 37.4397 12.4994 35.4345C10.01 35.3763 7.53586 35.8384 5.23535 36.7914C8.34165 44.4262 15.5359 48.4444 23.8863 47.3755C27.2894 47.0062 30.5193 45.6846 33.2052 43.5624L27.7866 39.4134C26.3903 40.4037 24.7606 41.014 23.0573 41.1847Z" fill="#1B2337"></path>
<path d="M10.9069 20.143C11.7542 20.1283 12.6018 20.1574 13.4461 20.2303C15.0222 18.4039 17.2338 17.2452 19.6325 16.9887C24.2091 16.3954 28.297 18.3717 29.9854 22.2502H30.4827C32.8391 22.3193 35.1847 21.9066 37.3759 21.0374C34.466 13.7603 27.5204 9.69414 19.1962 10.763C12.4121 11.6356 7.4167 15.3265 5.06952 20.8236C6.98497 20.3863 8.94223 20.1581 10.9069 20.143Z" fill="#1B2337"></path>
<path d="M72.5532 27.7866C72.5532 22.0844 69.425 19.0174 64.6783 19.0174C59.9316 19.0174 56.6813 22.0713 56.6813 27.7866V47.3886H47.7158V11.906H56.6813V16.3343C57.9598 14.7395 59.591 13.4633 61.4466 12.6063C63.3022 11.7493 65.3315 11.3348 67.3745 11.3956C75.6376 11.3956 81.523 16.7705 81.523 26.5737V47.3886H72.5532V27.7866Z" fill="#1B2337"></path>
<path d="M114.881 27.7866C114.881 22.0845 111.748 19.0174 107.028 19.0174C102.307 19.0174 99.0309 22.0714 99.0309 27.7866V47.3886H90.0392V11.9061H99.0091V16.3343C100.287 14.7399 101.917 13.4639 103.772 12.6069C105.627 11.7499 107.656 11.3352 109.698 11.3957C117.961 11.3957 123.846 16.7706 123.846 26.5738V47.3886H114.881V27.7866Z" fill="#1B2337"></path>
<path d="M146.262 11.3432C148.527 11.2743 150.774 11.7541 152.813 12.7417C154.852 13.7293 156.622 15.1953 157.972 17.0148V11.906H166.999V47.3886H157.972V42.1925C156.629 44.0424 154.853 45.5349 152.799 46.5396C150.746 47.5443 148.477 48.0305 146.193 47.9557C137.236 47.9557 130.05 40.5913 130.05 29.5099C130.05 18.4284 137.231 11.3432 146.262 11.3432ZM148.566 19.1962C143.715 19.1962 139.212 22.8348 139.212 29.4968C139.212 36.1587 143.763 40.0329 148.566 40.0329C153.369 40.0329 157.972 36.3202 157.972 29.5971C157.972 22.8741 153.492 19.1962 148.566 19.1962Z" fill="#1B2337"></path>
<path d="M196.465 11.3432C205.553 11.3432 212.651 18.4546 212.651 29.5448C212.651 40.635 205.553 47.9906 196.465 47.9906C194.201 48.0736 191.95 47.6042 189.908 46.6229C187.865 45.6416 186.092 44.1779 184.742 42.3583V47.4191H175.772V0H184.742V17.0978C186.071 15.2472 187.836 13.7536 189.882 12.7497C191.927 11.7458 194.188 11.2627 196.465 11.3432ZM194.035 19.1963C189.184 19.1963 184.694 22.909 184.694 29.632C184.694 36.3551 189.301 40.0329 194.083 40.0329C198.865 40.0329 203.502 36.2111 203.502 29.475C203.502 22.7388 199.013 19.1963 194.083 19.1963H194.035Z" fill="#1B2337"></path>
<path d="M219.191 0H228.134V47.3886H219.178L219.191 0Z" fill="#1B2337"></path>
<path d="M270.778 36.4759H250.309L245.863 47.5H240.134L257.97 0.5H263.36L281.134 47.5H275.406L270.778 36.4759ZM260.483 8.07125L251.565 32.4324H269.34L260.483 8.07125Z" fill="#155CDD"></path>
<path d="M287.214 0.5H293.134V12.5223V47.5H287.134V12.5609L287.214 0.5Z" fill="#155CDD"></path>
</svg>